<?xml version="1.0" encoding="utf-8"?>
<!-- Generator: Adobe Illustrator 19.0.0, SVG Export Plug-In . SVG Version: 6.00 Build 0)  -->
<svg version="1.1" xmlns="http://www.w3.org/2000/svg" xmlns:xlink="http://www.w3.org/1999/xlink" x="0px" y="0px"
	 viewBox="454.5 -17.5 75 75" style="enable-background:new 454.5 -17.5 75 75;" xml:space="preserve">
<style type="text/css">
	.st0{display:none;}
	.st1{display:inline;}
	.st2{display:none;fill:#010101;}
	.st3{fill:#010101;}
	.st4{font-family:'MyriadPro-Regular';}
	.st5{font-size:24px;}
</style>
<g id="Layer_1" class="st0">
	<g id="XMLID_1_" class="st1">
		<path id="XMLID_24_" class="st2" d="M491.9,1c-10.3,0-18.6,8.3-18.6,18.6c0,10.3,8.3,18.6,18.6,18.6c10.3,0,18.6-8.3,18.6-18.6
			C510.5,9.3,502.2,1,491.9,1z M491.9,33.2c-7.5,0-13.7-6.1-13.7-13.7c0-7.5,6.1-13.7,13.7-13.7c7.5,0,13.7,6.1,13.7,13.7
			C505.6,27.1,499.4,33.2,491.9,33.2z"/>
		<path id="XMLID_23_" class="st2" d="M492.2-2.2c0,0-8.1-15.3,0-15.3C500.3-17.5,492.2-2.2,492.2-2.2z"/>
		<path id="XMLID_22_" class="st2" d="M507.8,4.5c0,0,5.1-16.5,10.8-10.8C524.4-0.6,507.8,4.5,507.8,4.5z"/>
		<path id="XMLID_21_" class="st2" d="M514.2,20.2c0,0,15.3-8.1,15.3,0C529.5,28.3,514.2,20.2,514.2,20.2z"/>
		<g id="XMLID_25_">
			<path id="XMLID_16_" class="st3" d="M497.2,35.8c0,0,16.5,5.1,10.8,10.8C502.3,52.4,497.2,35.8,497.2,35.8z"/>
			<path id="XMLID_26_" class="st3" d="M486,35.8c0,0,16.5,5.1,10.8,10.8C491.1,52.4,486,35.8,486,35.8z"/>
			<path id="XMLID_27_" class="st3" d="M474.8,35.8c0,0,16.5,5.1,10.8,10.8C479.9,52.4,474.8,35.8,474.8,35.8z"/>
		</g>
		<path id="XMLID_20_" class="st2" d="M491.8,42.2c0,0,8.1,15.3,0,15.3C483.7,57.5,491.8,42.2,491.8,42.2z"/>
		<path id="XMLID_19_" class="st2" d="M476.2,35.5c0,0-5.1,16.5-10.8,10.8C459.6,40.6,476.2,35.5,476.2,35.5z"/>
		<path id="XMLID_18_" class="st2" d="M469.8,19.8c0,0-15.3,8.1-15.3,0C454.5,11.7,469.8,19.8,469.8,19.8z"/>
		<path id="XMLID_17_" class="st2" d="M476.5,4.2c0,0-16.5-5.1-10.8-10.8C471.4-12.4,476.5,4.2,476.5,4.2z"/>
	</g>
</g>
<g id="Layer_2">
	<g id="XMLID_2_">
		<g id="Layer_1_2_">
			<g id="XMLID_7_" class="st0">
				<g id="XMLID_14_" class="st1">
					<path id="XMLID_15_" d="M502.8-17.7l-3.4,11l-3.4-11c-0.6-2,0.4-4.2,2.3-4.9c1.9-0.7,3.9,0.4,4.6,2.4
						C503.1-19.3,503.1-18.5,502.8-17.7z"/>
				</g>
				<g id="XMLID_12_" class="st1">
					<path id="XMLID_13_" d="M521.2-6.5l-9.7,5.2l4.8-10.4c0.9-1.9,3.1-2.7,4.8-1.7c1.8,1,2.5,3.3,1.6,5.2
						C522.5-7.4,521.9-6.8,521.2-6.5z"/>
				</g>
				<g id="XMLID_10_" class="st1">
					<path id="XMLID_11_" d="M526.8,15.4l-10.3-3.7l10.3-3.7c1.9-0.7,3.9,0.4,4.6,2.5c0.6,2-0.4,4.2-2.3,4.9
						C528.3,15.7,527.5,15.7,526.8,15.4z"/>
				</g>
				<g id="XMLID_8_" class="st1">
					<path id="XMLID_9_" d="M482.5-11.7l4.8,10.4l-9.7-5.2c-1.8-1-2.5-3.3-1.6-5.2c0.9-1.9,3.1-2.7,4.8-1.7
						C481.6-13,482.1-12.4,482.5-11.7z"/>
				</g>
			</g>
			<path id="XMLID_29_" d="M515.3,6c-2.2-0.9-4.8-1.4-4.8-1.4c-2.2-0.4-2.8-0.3-3.8-0.5c-3.8-0.9-4.5-5.4-7.8-9
				c-1.7-1.8-4.6-4-9.8-5c-0.2,0-0.3-0.1-0.5-0.1c-6.1,0-11.5,2.9-15.3,7.4c-0.2,0.3-0.5,0.6-0.7,1c-1.2,1.8-2.2,3.7-3,5.4
				c-1,2.6-1.5,5.4-1.5,8.3c0,0.2,0,0.3,0,0.5c-5.9,1.6-10.3,7.4-10.3,14.3c0,8.1,6.2,14.7,13.7,14.7h37.7c9.4,0,17.1-8.3,17.1-18.4
				C526.3,13.8,518.5,7.3,515.3,6z M509.1,34.2h-37.7c-3.8,0-6.9-3.3-6.9-7.4s3.1-7.4,6.5-7.4l4.9,0.1l-0.8-4.4c-0.2-1-0.3-2-0.3-3
				c0-8.1,6.2-14.7,13.7-14.7c0.1,0,0.2,0,0.2-0.1c6.5,0.2,12,5.2,13.2,12c0.1,0.3,0.1,0.5,0.1,0.7c0.4,1.6,1.8,2.6,3.2,2.6
				c0.4,0,0.7,0,1-0.1c1.1-0.3,1.9-0.5,2.8-0.5c5.7,0,10.3,5,10.3,11S514.8,34.2,509.1,34.2z"/>
		</g>
	</g>
	<path id="XMLID_5_" d="M540.1,16.7"/>
</g>
<g id="Layer_3" class="st0">
	<text id="XMLID_3_" transform="matrix(1 0 0 1 477 53.75)" class="st1 st4 st5">***</text>
</g>
</svg>
