<?xml version="1.0" encoding="utf-8"?>
<!-- Generator: Adobe Illustrator 19.0.0, SVG Export Plug-In . SVG Version: 6.00 Build 0)  -->
<svg version="1.1" xmlns="http://www.w3.org/2000/svg" xmlns:xlink="http://www.w3.org/1999/xlink" x="0px" y="0px"
	 viewBox="454.5 -17.5 75 75" style="enable-background:new 454.5 -17.5 75 75;" xml:space="preserve">
<style type="text/css">
	.st0{display:none;}
	.st1{display:inline;fill:#010101;}
</style>
<g id="Layer_1">
	<g id="XMLID_1_" class="st0">
		<path class="st1" d="M491.9,1c-10.3,0-18.6,8.3-18.6,18.6c0,10.3,8.3,18.6,18.6,18.6c10.3,0,18.6-8.3,18.6-18.6
			C510.5,9.3,502.2,1,491.9,1z M491.9,33.2c-7.5,0-13.7-6.1-13.7-13.7c0-7.5,6.1-13.7,13.7-13.7c7.5,0,13.7,6.1,13.7,13.7
			C505.6,27.1,499.4,33.2,491.9,33.2z"/>
		<path class="st1" d="M492.2-2.2c0,0-8.1-15.3,0-15.3C500.3-17.5,492.2-2.2,492.2-2.2z"/>
		<path class="st1" d="M507.8,4.5c0,0,5.1-16.5,10.8-10.8C524.4-0.6,507.8,4.5,507.8,4.5z"/>
		<path class="st1" d="M514.2,20.2c0,0,15.3-8.1,15.3,0C529.5,28.3,514.2,20.2,514.2,20.2z"/>
		<path class="st1" d="M507.5,35.8c0,0,16.5,5.1,10.8,10.8C512.6,52.4,507.5,35.8,507.5,35.8z"/>
		<path class="st1" d="M491.8,42.2c0,0,8.1,15.3,0,15.3C483.7,57.5,491.8,42.2,491.8,42.2z"/>
		<path class="st1" d="M476.2,35.5c0,0-5.1,16.5-10.8,10.8C459.6,40.6,476.2,35.5,476.2,35.5z"/>
		<path class="st1" d="M469.8,19.8c0,0-15.3,8.1-15.3,0C454.5,11.7,469.8,19.8,469.8,19.8z"/>
		<path class="st1" d="M476.5,4.2c0,0-16.5-5.1-10.8-10.8C471.4-12.4,476.5,4.2,476.5,4.2z"/>
	</g>
</g>
<g id="Layer_2">
	<g id="XMLID_2_">
		<g id="Layer_1_2_">
			<g id="XMLID_7_">
				<g id="XMLID_14_">
					<path id="XMLID_15_" d="M500.8-12.4l-3.4,11l-3.4-11c-0.6-2,0.4-4.2,2.3-4.9c1.9-0.7,3.9,0.4,4.6,2.4
						C501-14,501-13.2,500.8-12.4z"/>
				</g>
				<g id="XMLID_12_">
					<path id="XMLID_13_" d="M519.1-1.2L509.4,4l4.8-10.4c0.9-1.9,3.1-2.7,4.8-1.7c1.8,1,2.5,3.3,1.6,5.2
						C520.4-2.1,519.8-1.5,519.1-1.2z"/>
				</g>
				<g id="XMLID_10_">
					<path id="XMLID_11_" d="M524.7,20.7L514.5,17l10.3-3.7c1.9-0.7,3.9,0.4,4.6,2.5c0.6,2-0.4,4.2-2.3,4.9
						C526.3,21,525.5,21,524.7,20.7z"/>
				</g>
				<g id="XMLID_8_">
					<path id="XMLID_9_" d="M480.4-6.4L485.2,4l-9.7-5.2c-1.8-1-2.5-3.3-1.6-5.2c0.9-1.9,3.1-2.7,4.8-1.7
						C479.5-7.7,480-7.1,480.4-6.4z"/>
				</g>
			</g>
			<path id="XMLID_3_" d="M512,22c0.5-1.6,0.8-3.2,0.8-4.9c0-9.1-6.9-16.6-15.4-16.6c-4.6,0-8.7,2.2-11.5,5.6
				c-0.2,0-0.3-0.1-0.5-0.1c-6.1,0-11.5,2.9-15.3,7.4c-0.8-0.3-1.6-0.3-2.4,0c-1.9,0.7-2.9,2.9-2.3,4.9c0.2,0.6,0.5,1.1,0.9,1.5
				c-1,2.6-1.5,5.4-1.5,8.3c0,0.2,0,0.3,0,0.5c-5.9,1.6-10.3,7.4-10.3,14.3c0,8.1,6.2,14.7,13.7,14.7h37.7c9.4,0,17.1-8.3,17.1-18.4
				C523,31.3,518.4,24.6,512,22z M497.3,7.8c4.7,0,8.6,4.1,8.6,9.2c0,1.3-0.3,2.6-0.8,3.7c-1.2,0.1-2.5,0.3-3.8,0.7
				c-1.8-5-5.5-8.9-10.2-10.7C492.6,9,494.9,7.8,497.3,7.8z M505.9,50.1h-37.7c-3.8,0-6.9-3.3-6.9-7.4s3.1-7.4,6.5-7.4l4.9,0.1
				l-0.8-4.4c-0.2-1-0.3-2-0.3-3c0-8.1,6.2-14.7,13.7-14.7c0.1,0,0.2,0,0.2-0.1c6.5,0.2,12,5.2,13.2,12c0.1,0.3,0.1,0.5,0.1,0.7
				c0.4,1.6,1.8,2.6,3.2,2.6c0.4,0,0.7,0,1-0.1c1.1-0.3,1.9-0.5,2.8-0.5c5.7,0,10.3,5,10.3,11S511.6,50.1,505.9,50.1z"/>
		</g>
	</g>
</g>
</svg>
