<?xml version="1.0" encoding="utf-8"?>
<!-- Generator: Adobe Illustrator 19.0.0, SVG Export Plug-In . SVG Version: 6.00 Build 0)  -->
<svg version="1.1" id="Layer_1" xmlns="http://www.w3.org/2000/svg" xmlns:xlink="http://www.w3.org/1999/xlink" x="0px" y="0px"
	 viewBox="454.5 -17.5 75 75" style="enable-background:new 454.5 -17.5 75 75;" xml:space="preserve">
<style type="text/css">
	.st0{fill:#010101;}
</style>
<g>
	<path class="st0" d="M491.9,1c-10.3,0-18.6,8.3-18.6,18.6c0,10.3,8.3,18.6,18.6,18.6c10.3,0,18.6-8.3,18.6-18.6
		C510.5,9.3,502.2,1,491.9,1z M491.9,33.2c-7.5,0-13.7-6.1-13.7-13.7c0-7.5,6.1-13.7,13.7-13.7c7.5,0,13.7,6.1,13.7,13.7
		C505.6,27.1,499.4,33.2,491.9,33.2z"/>
	<path class="st0" d="M492.2-2.2c0,0-8.1-15.3,0-15.3C500.3-17.5,492.2-2.2,492.2-2.2z"/>
	<path class="st0" d="M507.8,4.5c0,0,5.1-16.5,10.8-10.8C524.4-0.6,507.8,4.5,507.8,4.5z"/>
	<path class="st0" d="M514.2,20.2c0,0,15.3-8.1,15.3,0C529.5,28.3,514.2,20.2,514.2,20.2z"/>
	<path class="st0" d="M507.5,35.8c0,0,16.5,5.1,10.8,10.8C512.6,52.4,507.5,35.8,507.5,35.8z"/>
	<path class="st0" d="M491.8,42.2c0,0,8.1,15.3,0,15.3C483.7,57.5,491.8,42.2,491.8,42.2z"/>
	<path class="st0" d="M476.2,35.5c0,0-5.1,16.5-10.8,10.8C459.6,40.6,476.2,35.5,476.2,35.5z"/>
	<path class="st0" d="M469.8,19.8c0,0-15.3,8.1-15.3,0C454.5,11.7,469.8,19.8,469.8,19.8z"/>
	<path class="st0" d="M476.5,4.2c0,0-16.5-5.1-10.8-10.8C471.4-12.4,476.5,4.2,476.5,4.2z"/>
</g>
</svg>
